<svg xmlns="http://www.w3.org/2000/svg" baseProfile="basic" viewBox="0 0 48 48"><radialGradient id="1fhSly0l_Ggr2ytrfJJ-ra" cx="-869.755" cy="628.201" r="3.279" gradientTransform="matrix(-.874 .1269 -.263 -1.8118 -585.845 1273.967)" gradientUnits="userSpaceOnUse"><stop offset=".305" stop-color="#ffe16e"/><stop offset="1" stop-color="#ffe16e" stop-opacity="0"/></radialGradient><radialGradient id="1fhSly0l_Ggr2ytrfJJ-rb" cx="34.764" cy="16.63" r="16.37" gradientTransform="matrix(.0765 .9986 -1.0262 .0786 49.188 -19.406)" gradientUnits="userSpaceOnUse"><stop offset=".031" stop-color="#923d00"/><stop offset=".343" stop-color="#c58207"/><stop offset=".503" stop-color="#f2b51d"/><stop offset=".804" stop-color="#c58207"/><stop offset="1" stop-color="#923d00"/></radialGradient><path fill="url(#1fhSly0l_Ggr2ytrfJJ-rb)" d="M40.974,16.626c-2.273,0-11.815-0.86-11.511,4.804c0.059,1.089-1.449,10.829,2.904,12.107	l10.473-5.113C42.84,25.538,40.102,22.382,40.974,16.626z"/><radialGradient id="1fhSly0l_Ggr2ytrfJJ-rc" cx="45.857" cy="23.49" r="16.37" gradientTransform="matrix(-1.0016 0 0 -1.0292 91.82 47.667)" gradientUnits="userSpaceOnUse"><stop offset=".394" stop-color="#f2b51d" stop-opacity="0"/><stop offset=".723" stop-color="#c58207" stop-opacity=".5"/><stop offset="1" stop-color="#923d00"/></radialGradient><path fill="url(#1fhSly0l_Ggr2ytrfJJ-rc)" d="M40.974,16.626c-2.273,0-11.815-0.86-11.511,4.804c0.059,1.089-1.449,10.829,2.904,12.107	l10.473-5.113C42.84,25.538,40.102,22.382,40.974,16.626z"/><radialGradient id="1fhSly0l_Ggr2ytrfJJ-rd" cx="34.084" cy="32.078" r="8.249" gradientTransform="matrix(.0351 1.0009 -1.2361 .0434 72.553 -3.416)" gradientUnits="userSpaceOnUse"><stop offset=".545" stop-color="#ffd226"/><stop offset=".709" stop-color="#fdcd23"/><stop offset=".864" stop-color="#f6bd1b"/><stop offset="1" stop-color="#f0af13"/></radialGradient><path fill="url(#1fhSly0l_Ggr2ytrfJJ-rd)" d="M42.816,28.919c0.012-0.171,0.024-0.342,0.024-0.493c0,0,0-0.001,0-0.001	c0-0.001,0-0.001,0-0.002l0,0c-0.001-1.252-0.509-2.551-1.017-4.086c-5.577,4.927-7.31,7.762-7.414,7.941l-0.006,0.006l0,0h-3.177	c-3.24,0-5.867,2.627-5.867,5.867c0,0.932,0.755,1.686,1.686,1.686c4.931-1.066,10.57-0.004,11.188,0	c0,0.002,0.001,0.003,0.001,0.005c1.205,0,2.229-0.57,2.893-1.439c0.458-0.598,0.75-1.332,0.793-2.137	c0.15-2.825,0.685-5.25,0.86-6.926c0.009-0.082,0.022-0.173,0.028-0.252C42.813,29.029,42.812,28.978,42.816,28.919z"/><radialGradient id="1fhSly0l_Ggr2ytrfJJ-re" cx="26.087" cy="32.043" r="15.401" gradientTransform="matrix(1.0016 0 0 .4631 -.037 17.217)" gradientUnits="userSpaceOnUse"><stop offset=".4" stop-color="#bf7500"/><stop offset=".973" stop-color="#f0af13" stop-opacity="0"/></radialGradient><path fill="url(#1fhSly0l_Ggr2ytrfJJ-re)" d="M34.403,32.286h-3.177c-3.24,0-5.867,2.627-5.867,5.867c0,0.932,0.755,1.686,1.686,1.686	c4.939-1.068,10.591,0,11.193,0C37.188,33.815,34.403,32.286,34.403,32.286z"/><radialGradient id="1fhSly0l_Ggr2ytrfJJ-rf" cx="71.849" cy="762.893" r="19.315" gradientTransform="matrix(.9902 -.1497 -.0986 -.6918 27.195 559.979)" gradientUnits="userSpaceOnUse"><stop offset="0" stop-color="#ffe16e"/><stop offset=".629" stop-color="#ffd226"/><stop offset=".75" stop-color="#fdcd23"/><stop offset=".9" stop-color="#f6bd1b"/><stop offset="1" stop-color="#f0af13"/></radialGradient><path fill="url(#1fhSly0l_Ggr2ytrfJJ-rf)" d="M40.642,17.016c0-4.942-1.624-8.124-3.763-8.972c-0.495-0.239-1.044-0.385-1.63-0.385	c-0.402,0-0.783,0.08-1.147,0.197l0.005-0.02c-2.935,1.087-4.463,1.136-6.757-0.155l-0.003,0.006	c-0.573-0.409-1.268-0.653-2.022-0.653c-0.631,0-1.216,0.182-1.729,0.477l-0.005-0.016c-2.018,1.273-4.525,1.791-6.581,1.532v0.016	c-0.126-0.022-0.251-0.05-0.382-0.05c-0.683,0-1.301,0.328-1.785,0.851l-0.003-0.017c-0.023,0.04-0.054,0.066-0.078,0.104	c-0.077,0.09-0.147,0.186-0.216,0.286c-1.411,1.842-3.857,1.888-6.005,1.874v0.006c-0.173-0.017-0.345-0.019-0.515,0.01	C5.642,12.52,4.523,17.563,5.528,23.37c0.469,2.715,1.282,4.677,2.324,6.697c0.369,0.716,0.815,1.4,1.392,1.962	c0.833,0.81,1.888,1.402,3.231,1.402c0.782,0,1.505-0.191,2.146-0.497c0.631,1.492,1.434,2.406,2.313,2.452l2.428,0.01	c1.218,0,2.262-0.706,2.774-1.725c0.515,1.286,1.895,2.156,3.327,2.156h2.145c2.039,0,3.692-1.653,3.692-3.692v-2.517	c-0.416-3.579-0.704-9.905-0.164-11.573C32.561,13.641,40.642,17.159,40.642,17.016z"/><linearGradient id="1fhSly0l_Ggr2ytrfJJ-rg" x1="10.204" x2="10.204" y1="633.69" y2="630.008" gradientTransform="matrix(1 0 0 -1 0 662)" gradientUnits="userSpaceOnUse"><stop offset=".224" stop-color="#ffd73f" stop-opacity="0"/><stop offset=".275" stop-color="#fed43b" stop-opacity=".066"/><stop offset=".736" stop-color="#f4b91e" stop-opacity=".661"/><stop offset=".999" stop-color="#f0af13"/></linearGradient><path fill="url(#1fhSly0l_Ggr2ytrfJJ-rg)" d="M13.758,29.978c-0.648,0.322-1.393,0.515-2.194,0.515	c-1.343,0-2.397-0.592-3.231-1.402c-0.578-0.562-1.023-1.245-1.392-1.962c-0.426-0.826-0.812-1.645-1.153-2.507	c0.484,2.083,1.192,3.739,2.064,5.428c0.369,0.716,0.815,1.4,1.392,1.962c0.833,0.81,1.888,1.402,3.231,1.402	c0.782,0,1.505-0.19,2.145-0.497C14.275,32.097,13.983,31.1,13.758,29.978z" opacity=".78"/><radialGradient id="1fhSly0l_Ggr2ytrfJJ-rh" cx="16.058" cy="634.974" r="4.88" gradientTransform="matrix(.9982 -.0818 -.1749 -2.136 111.094 1384.639)" gradientUnits="userSpaceOnUse"><stop offset=".71" stop-color="#d9960f"/><stop offset="1" stop-color="#f0af13" stop-opacity="0"/></radialGradient><path fill="url(#1fhSly0l_Ggr2ytrfJJ-rh)" d="M13.261,24.679c0-2.162,0.226-6.013,0.61-7.697c-1.184,0.739-2.578,4.721-2.578,8.564	c0,1.978,0.215,3.772,0.565,5.097c0.175,0.662,1.112,2.323,1.298,2.739c0.776-0.117,1.021-0.254,1.458-0.465	c-0.206-0.491-0.394-1.044-0.56-1.649c-0.166-0.605-0.308-1.263-0.426-1.963C13.393,27.905,13.261,26.336,13.261,24.679z"/><radialGradient id="1fhSly0l_Ggr2ytrfJJ-ri" cx="26.421" cy="27.699" r="7.259" gradientTransform="matrix(1.0016 0 0 1.9678 -.037 -26.801)" gradientUnits="userSpaceOnUse"><stop offset=".792" stop-color="#d9960f"/><stop offset="1" stop-color="#f0af13" stop-opacity="0"/></radialGradient><path fill="url(#1fhSly0l_Ggr2ytrfJJ-ri)" d="M22.113,33.79c0-0.064,0.009-0.101,0.009-0.129c-0.295,0.589-0.755,1.077-1.326,1.372	c-3.269-8.464-0.508-17.751,1.335-18.465c-1.013,4.161-1.252,14.121,0,17.066c0,0,0,0,0,0.009c0,0.009,0.009,0.018,0.009,0.028	C22.131,33.707,22.122,33.753,22.113,33.79z"/><radialGradient id="1fhSly0l_Ggr2ytrfJJ-rj" cx="-834.238" cy="610.182" r="3.084" gradientTransform="matrix(-.844 .024 -.0557 -1.9564 -652.443 1240.45)" gradientUnits="userSpaceOnUse"><stop offset=".425" stop-color="#ffe16e"/><stop offset="1" stop-color="#ffe16e" stop-opacity="0"/></radialGradient><path fill="url(#1fhSly0l_Ggr2ytrfJJ-rj)" d="M14.806,26.761c0.108,3.788,1.492,6.822,3.093,6.776	c1.6-0.045,2.81-3.154,2.703-6.942c-0.108-3.788-1.492-6.822-3.093-6.776C15.908,19.865,14.698,22.973,14.806,26.761z" opacity=".53"/><radialGradient id="1fhSly0l_Ggr2ytrfJJ-rk" cx="-853.374" cy="608.633" r="3.087" gradientTransform="matrix(-1.0298 0 0 -1.9669 -852.625 1223.67)" gradientUnits="userSpaceOnUse"><stop offset=".425" stop-color="#ffe16e"/><stop offset="1" stop-color="#ffe16e" stop-opacity="0"/></radialGradient><ellipse cx="26.186" cy="26.568" fill="url(#1fhSly0l_Ggr2ytrfJJ-rk)" opacity=".53" rx="3.535" ry="6.896"/><linearGradient id="1fhSly0l_Ggr2ytrfJJ-rl" x1="17.888" x2="17.947" y1="630.52" y2="626.951" gradientTransform="matrix(1 0 0 -1 0 662)" gradientUnits="userSpaceOnUse"><stop offset=".224" stop-color="#ffd73f" stop-opacity="0"/><stop offset=".275" stop-color="#fed43b" stop-opacity=".066"/><stop offset=".736" stop-color="#f4b91e" stop-opacity=".661"/><stop offset=".999" stop-color="#f0af13"/></linearGradient><path fill="url(#1fhSly0l_Ggr2ytrfJJ-rl)" d="M21.819,31.386c-0.566,0.76-1.46,1.26-2.481,1.26l-2.428-0.01	c-0.579-0.03-1.677-0.162-2.289-0.889c-0.566-0.673-1.197-3.369-0.896-1.762c0.591,3.152,1.82,5.342,3.184,5.414l2.428,0.01	c1.233,0,2.289-0.724,2.794-1.763c-0.085-0.217-0.151-0.442-0.182-0.681L21.819,31.386z" opacity=".78"/><linearGradient id="1fhSly0l_Ggr2ytrfJJ-rm" x1="26.549" x2="26.652" y1="630.923" y2="627.442" gradientTransform="matrix(1 0 0 -1 0 662)" gradientUnits="userSpaceOnUse"><stop offset=".224" stop-color="#ffd73f" stop-opacity="0"/><stop offset=".275" stop-color="#fed43b" stop-opacity=".066"/><stop offset=".736" stop-color="#f4b91e" stop-opacity=".661"/><stop offset=".999" stop-color="#f0af13"/></linearGradient><path fill="url(#1fhSly0l_Ggr2ytrfJJ-rm)" d="M27.63,32.787h-2.145c-1.52,0-3.789-2.399-3.789-2.399l0.269,2.575	c0.217,1.666,1.84,2.859,3.52,2.859h2.145c2.039,0,3.692-1.653,3.692-3.692v-3.035C31.323,31.134,29.669,32.787,27.63,32.787z" opacity=".78"/><radialGradient id="1fhSly0l_Ggr2ytrfJJ-rn" cx="35.426" cy="11.585" r="4.513" gradientTransform="matrix(.0765 .9986 -1.0262 .0786 44.623 -24.723)" gradientUnits="userSpaceOnUse"><stop offset=".629" stop-color="#ffd226"/><stop offset="1" stop-color="#f0af13"/></radialGradient><path fill="url(#1fhSly0l_Ggr2ytrfJJ-rn)" d="M40.287,13.336l-10.72,0.075c0,0,0.546-2.798,2.553-4.955	c0.593-0.132,1.243-0.349,1.988-0.622l-0.009,0.019c0.367-0.113,0.744-0.198,1.149-0.198c0.584,0,1.14,0.151,1.63,0.386	C38.422,8.654,39.703,10.491,40.287,13.336z"/><radialGradient id="1fhSly0l_Ggr2ytrfJJ-ro" cx="80.211" cy="747.289" r="4.94" fx="79.168" fy="747.29" gradientTransform="matrix(.9928 -.0161 .5879 -5.8063 -485.732 4371.776)" gradientUnits="userSpaceOnUse"><stop offset=".413" stop-color="#d9960f"/><stop offset="1" stop-color="#f0af13" stop-opacity="0"/></radialGradient><path fill="url(#1fhSly0l_Ggr2ytrfJJ-ro)" d="M28.05,20.206c-0.576,5.39-0.443,15.62-0.443,15.62c2.039,0,3.692-1.653,3.692-3.692v-2.517	c-0.416-3.579-0.704-9.905-0.164-11.573C32.561,13.641,28.71,14.033,28.05,20.206z"/><radialGradient id="1fhSly0l_Ggr2ytrfJJ-rp" cx="35.525" cy="13.79" r="6.802" gradientTransform="matrix(1.0016 0 0 .9135 -.037 1.177)" gradientUnits="userSpaceOnUse"><stop offset="0" stop-color="#ffe16e"/><stop offset=".497" stop-color="#ffd226"/><stop offset="1" stop-color="#d2870e"/></radialGradient><path fill="url(#1fhSly0l_Ggr2ytrfJJ-rp)" d="M35.46,12.36c-1.666,0-6.07-1.109-6.07,2.149c0,2.793,2.719,5.058,6.072,5.058	s6.072-2.265,6.072-5.058C41.535,11.236,37.126,12.36,35.46,12.36z"/><path fill="#ffedab" d="M35.46,11.117c-1.894,0-3.663,1.117-3.663,1.117l-1.047,1.368	c0,0,1.56-0.512,4.71-0.512c3.15,0,4.71,0.512,4.71,0.512l-1.047-1.368C39.124,12.234,37.355,11.117,35.46,11.117z" opacity=".56"/><radialGradient id="1fhSly0l_Ggr2ytrfJJ-rq" cx="33.102" cy="28.97" r="7.361" gradientTransform="matrix(.9412 .3426 -.7728 2.1233 24.35 -43.873)" gradientUnits="userSpaceOnUse"><stop offset=".364" stop-color="#b06604"/><stop offset=".499" stop-color="#bd7709" stop-opacity=".788"/><stop offset=".766" stop-color="#dea517" stop-opacity=".367"/><stop offset="1" stop-color="#fed125" stop-opacity="0"/></radialGradient><path fill="url(#1fhSly0l_Ggr2ytrfJJ-rq)" d="M42.84,28.427c0,0.904-0.226,2.185-0.462,3.721c-1.771,2.054-3.237,4.438-4.801,5.013	c-1.085-3.137-2.5-4.382-2.952-4.721c-0.141-0.104-0.226-0.151-0.226-0.151l0.009-0.009c0.104-0.179,1.837-3.014,7.414-7.941	C42.331,25.874,42.84,27.174,42.84,28.427z"/><linearGradient id="1fhSly0l_Ggr2ytrfJJ-rr" x1="41.541" x2="33.851" y1="22.664" y2="31.828" gradientUnits="userSpaceOnUse"><stop offset=".269" stop-color="#f2b517"/><stop offset=".946" stop-color="#a85b03"/></linearGradient><path fill="url(#1fhSly0l_Ggr2ytrfJJ-rr)" d="M41.823,24.338c-5.577,4.927-7.31,7.762-7.414,7.941L34.4,32.289	c0.699-4.931,3.838-8.17,6.83-9.863h0.028C41.427,23.104,41.625,23.745,41.823,24.338z"/><radialGradient id="1fhSly0l_Ggr2ytrfJJ-rs" cx="35.53" cy="14.643" r="4.341" gradientTransform="matrix(1.1388 0 0 1.0016 -5.002 -.037)" gradientUnits="userSpaceOnUse"><stop offset="0" stop-color="#da9a12"/><stop offset=".493" stop-color="#fff" stop-opacity="0"/><stop offset="1" stop-color="#da9a12"/></radialGradient><path fill="url(#1fhSly0l_Ggr2ytrfJJ-rs)" d="M35.46,11.117c-1.894,0-3.663,1.117-3.663,1.117l-1.047,1.368	c0,0,1.56-0.512,4.71-0.512c3.15,0,4.71,0.512,4.71,0.512l-1.047-1.368C39.124,12.234,37.355,11.117,35.46,11.117z" opacity=".91"/></svg>